<svg xmlns="http://www.w3.org/2000/svg" width="100" height="100" viewBox="0 0 100 100">
  <g id="그룹_441" data-name="그룹 441" transform="translate(-963.336 -158.019)">
    <circle id="타원_111" data-name="타원 111" cx="50" cy="50" r="50" transform="translate(963.336 158.019)" fill="#fff"/>
    <g id="그룹_440" data-name="그룹 440" transform="translate(968.793 161.943)">
      <path id="패스_771" data-name="패스 771" d="M1008.855,295.562c0,5.233-3.777,8.526-7.936,8.526a6.43,6.43,0,0,1-5.2-2.426v9.946h-4.54V287.486h4.54v1.977a6.5,6.5,0,0,1,5.2-2.392C1005.078,287.071,1008.855,290.4,1008.855,295.562Zm-4.643.035a4.178,4.178,0,1,0-8.353,0,4.29,4.29,0,0,0,4.194,4.262A4.194,4.194,0,0,0,1004.212,295.6Z" transform="translate(-985.056 -237.318)" fill="#243dcd"/>
      <path id="패스_772" data-name="패스 772" d="M976.457,247.413a8.7,8.7,0,1,1,8.7,8.491A8.468,8.468,0,0,1,976.457,247.413Zm12.789,0a4.094,4.094,0,1,0-4.091,4.262A4.106,4.106,0,0,0,989.246,247.413Z" transform="translate(-976.457 -209.175)" fill="#243dcd"/>
      <path id="패스_773" data-name="패스 773" d="M1005.938,205.667c0-5.128,4.159-8.456,8.872-8.456a8.193,8.193,0,0,1,6.827,3.466l-3.431,2.391a4.27,4.27,0,0,0-3.361-1.629,4.135,4.135,0,0,0-4.3,4.229,4.2,4.2,0,0,0,4.3,4.332,4.27,4.27,0,0,0,3.361-1.629l3.431,2.392a8.2,8.2,0,0,1-6.827,3.466A8.58,8.58,0,0,1,1005.938,205.667Z" transform="translate(-993.676 -184.834)" fill="#243dcd"/>
      <path id="패스_774" data-name="패스 774" d="M1056.4,192.441V167.453h4.539v24.988Z" transform="translate(-1023.152 -167.453)" fill="#243dcd"/>
      <path id="패스_775" data-name="패스 775" d="M1095.759,193.515v9.7h-4.748v-1.975a7.748,7.748,0,0,1-5.684,2.391c-3.362,0-5.961-1.976-5.961-5.06,0-3.327,3.119-5.06,6.654-5.06a12.058,12.058,0,0,1,4.99,1.04v-.832c0-1.872-1.387-3.189-3.57-3.189a6.6,6.6,0,0,0-4.506,1.559l-2.5-2.565c1.422-1.732,4.3-2.911,7.417-2.911C1092.258,186.618,1095.759,188.9,1095.759,193.515Zm-4.748,4.471V197.5a8.116,8.116,0,0,0-4.054-1.075c-2.115,0-3.016,1.005-3.016,1.941,0,1.005,1.005,1.7,2.6,1.7A5.888,5.888,0,0,0,1091.01,197.986Z" transform="translate(-1036.563 -178.647)" fill="#243dcd"/>
      <path id="패스_776" data-name="패스 776" d="M1147.363,211.169v8.872h-4.541v-8.63c0-2.529-1.525-3.674-3.084-3.674a3.446,3.446,0,0,0-3.639,3.812v8.491h-4.539V203.856h4.539v2.738c.693-2.183,3.258-3.154,4.852-3.154C1145.179,203.441,1147.4,206.318,1147.363,211.169Z" transform="translate(-1067.047 -188.472)" fill="#243dcd"/>
      <path id="패스_777" data-name="패스 777" d="M1152.949,260.634a8.7,8.7,0,1,1,8.7,8.491A8.468,8.468,0,0,1,1152.949,260.634Zm12.79,0a4.094,4.094,0,1,0-4.091,4.262A4.106,4.106,0,0,0,1165.739,260.634Z" transform="translate(-1079.54 -216.897)" fill="#243dcd"/>
      <path id="패스_778" data-name="패스 778" d="M1144.968,312.386h4.262a2.12,2.12,0,0,0,2.392,1.941c1.317,0,2.323-.66,2.323-1.6,0-.693-.556-1.039-1.769-1.351l-2.148-.52c-4.159-1.108-4.713-3.431-4.713-5.13,0-2.5,2.6-4.851,6.342-4.851,2.947,0,6.412,1.42,6.378,5.269H1153.7a1.755,1.755,0,0,0-1.974-1.7c-1.04,0-1.872.589-1.872,1.42,0,.763.693,1.144,1.594,1.387l2.668.693c3.882,1.039,4.366,3.465,4.366,4.782,0,3.4-3.466,5.165-6.792,5.165C1148.295,317.9,1145,315.956,1144.968,312.386Z" transform="translate(-1074.879 -245.383)" fill="#243dcd"/>
    </g>
  </g>
</svg>
